<svg width="80" height="30" viewBox="0 0 80 30" fill="none" xmlns="http://www.w3.org/2000/svg">
<path d="M9.54758 20.1869C21.6893 20.4575 33.0478 25.8698 45.1895 26.5463C48.7145 26.6816 52.2396 26.2757 54.9813 24.652C50.0201 23.7051 45.3201 21.9461 41.795 18.5632C38.0087 15.0454 37.6172 8.55065 39.9673 3.9502C42.1867 -0.379631 47.8006 -0.514937 51.7173 0.567521C60.9871 2.86753 67.2536 14.3686 62.0315 22.4869C67.776 22.8928 73.5205 22.4869 79.1344 22.7577C80.3094 22.8928 80.3094 24.6518 79.0039 24.6518C73.2594 25.0577 66.3399 25.5989 59.5509 25.193C59.1593 25.4638 58.7676 25.8698 58.3759 26.1402C44.5369 36.1529 24.3007 23.5693 9.41724 23.1634C7.72001 23.0281 7.72001 20.0516 9.54758 20.1869ZM60.8565 16.9393C62.2926 11.3919 57.5926 6.65613 53.2842 4.35568C48.9759 2.05546 42.8397 2.05546 41.4036 7.87368C39.7064 14.639 45.3203 18.698 50.6731 20.4573C53.1537 21.2691 55.5037 21.8103 57.9843 22.0809C59.4202 20.7279 60.3341 19.1042 60.8565 16.9393Z" fill="#ACACA0" fill-opacity="0.5"/>
<path d="M0.670068 20.3219C2.49765 19.1041 4.19489 17.8864 5.89213 16.6688C7.32826 15.5863 8.76439 14.3686 10.4616 13.9627C11.7672 13.5567 13.0728 15.5863 11.8978 16.5333C10.4616 17.6157 8.89495 18.5629 7.45861 19.5101C6.41415 20.1868 5.36969 20.9984 4.45601 21.675C5.50046 22.2162 6.54492 22.6221 7.58938 23.1634C8.37272 23.5693 9.28662 23.9752 10.07 24.3811C10.3311 24.5164 10.5922 24.7871 10.723 25.0577C11.1146 25.5989 10.8533 25.3285 10.723 25.193C11.245 25.5989 11.245 26.952 10.3311 26.8167C10.07 26.952 9.80907 26.952 9.41739 26.952C8.50349 26.6814 7.45882 26.2754 6.54513 25.8695C4.58656 25.0575 2.62842 24.2456 0.80041 23.1634C-0.243834 22.3517 -0.243832 20.8631 0.670068 20.3219Z" fill="#ACACA0" fill-opacity="0.5"/>
</svg>
