<svg width="56" height="47" viewBox="0 0 56 47" fill="none" xmlns="http://www.w3.org/2000/svg">
<path fill-rule="evenodd" clip-rule="evenodd" d="M24.4433 0C16.8693 0 10.3323 2.14637 5.96327 6.00313C-1.79873 12.8546 -2.33673 28.2853 6.44327 37.5157C11.9823 43.339 20.4213 46.3264 29.6433 46.3264C47.1033 46.3246 55.0033 34.57 55.0033 24.8473C55.0033 11.1924 43.8813 0 24.4433 0ZM52.1353 20.9115C51.6238 21.0605 51.0785 21.0865 50.5527 20.9868C50.0268 20.8871 49.5385 20.6653 49.1353 20.3429C46.7026 18.4274 44.4768 16.3053 42.4883 14.0055C41.9495 13.2787 41.1485 12.7455 40.2233 12.4977C40.4095 12.4692 40.5937 12.4313 40.7753 12.3841C41.6286 12.1499 42.3553 11.6352 42.8134 10.9406C43.2716 10.246 43.4284 9.42124 43.2533 8.62728C43.2006 8.09501 43.0159 7.58046 42.7133 7.12218C47.5709 10.545 50.914 15.4383 52.1343 20.9115H52.1353ZM37.1343 8.36387C37.1343 7.15307 36.8953 6.50816 38.5703 6.50816C39.1149 6.52637 39.645 6.67338 40.1079 6.93465C40.5709 7.19592 40.9508 7.56241 41.21 7.99789C41.4693 8.43337 41.5989 8.92277 41.5862 9.41771C41.5734 9.91265 41.4187 10.396 41.1373 10.82C40.9005 11.1215 40.581 11.3615 40.2105 11.516C39.8399 11.6706 39.4313 11.7344 39.0253 11.7011H37.2253V11.4731C37.2253 11.4731 37.1383 9.07509 37.1383 8.36387H37.1343ZM43.8863 41.2843C44.4982 40.4218 44.8829 39.4427 45.0106 38.4231C45.1382 37.4035 45.0054 36.371 44.6223 35.4056C43.8033 33.3955 42.5603 31.2519 41.5273 29.1645C40.6143 27.3179 39.4513 25.0535 41.7043 24.3976C42.06 24.3132 42.4311 24.2957 42.7946 24.3461C43.1581 24.3965 43.5064 24.5139 43.8182 24.691C44.13 24.868 44.3987 25.1011 44.6078 25.3759C44.8169 25.6506 44.962 25.9613 45.0343 26.2888C45.1463 26.7611 45.3623 26.9246 45.5343 26.9064C45.9343 26.8647 45.7503 25.3359 45.8243 24.6111C45.8983 23.8863 45.7863 23.7164 45.3793 23.5783C44.3005 23.2845 43.1701 23.1796 42.0483 23.2695C40.1673 23.3967 36.6093 24.8137 39.8613 30.864C40.8933 32.7833 42.2983 34.8734 42.3803 38.4258C42.4899 39.4492 42.2415 40.4779 41.6705 41.3657C41.0994 42.2535 40.2346 42.9551 39.1993 43.3708C36.5585 44.1329 33.7999 44.504 31.0293 44.4698C11.7243 44.4698 4.68827 32.6816 3.26627 22.3675C6.05327 25.2969 10.6493 25.7556 12.4873 25.7556C14.8456 25.6137 17.1909 25.3285 19.5073 24.9018C20.2073 24.8727 19.9813 24.4322 19.9193 22.6673C19.8573 20.9024 20.0133 20.7262 19.6353 20.7598C19.2573 20.7934 19.3183 21.4074 18.9073 22.0532C17.0413 24.642 12.8683 24.4658 12.5193 24.4658C12.1703 24.4658 3.70327 23.8717 3.70327 15.932C3.70327 7.99236 10.7223 8.08864 10.7223 8.08864C13.9973 7.96148 17.5583 8.68996 18.4143 11.2351C18.8063 12.4041 19.0553 12.6421 19.3143 12.5803C19.4423 12.54 19.5478 12.4556 19.6082 12.3454C19.6686 12.2352 19.679 12.1079 19.6373 11.9908C19.5038 10.6219 19.4611 9.24694 19.5093 7.87337C19.6373 6.46092 19.0983 6.72615 18.7513 6.84333C18.1101 7.08595 17.4208 7.20592 16.7263 7.19576C14.7679 6.93054 12.7936 6.77372 10.8143 6.72615C9.64878 6.73174 8.49179 6.90684 7.38727 7.24481C10.5733 4.08111 15.7483 1.81665 23.7383 1.81665C29.3566 1.69069 34.9115 2.91826 39.8383 5.37457C39.5119 5.32079 39.1809 5.29404 38.8493 5.29463C36.2493 5.29463 34.4203 6.29924 34.4203 6.58355C34.549 6.92108 34.7368 7.2376 34.9763 7.52094C35.7763 8.77443 36.0693 18.538 35.1763 19.7261C34.6563 20.411 34.2833 20.5354 34.3613 20.7525C34.3933 20.8434 34.4313 20.8752 34.6063 20.8752C35.1447 20.7939 35.688 20.7418 36.2333 20.7189C37.1333 20.7189 37.4133 20.8043 38.0563 20.8334C38.3093 20.8452 38.3753 20.857 38.4153 20.7652C38.5153 20.5454 38.2053 20.4927 37.9643 20.1785C37.5643 19.6671 37.2643 17.8704 37.2643 12.8664C39.2153 12.8664 38.9593 12.9264 40.5433 14.7739C41.6303 16.0401 42.1303 16.7586 44.7583 19.4972C47.4093 22.2603 49.4013 22.4284 50.8403 22.234C51.1286 22.2152 51.4076 22.1332 51.6535 21.9951C51.8994 21.857 52.1048 21.6669 52.2523 21.441C52.4784 22.5903 52.5949 23.7552 52.6003 24.9227C52.6003 24.9227 52.8253 35.7426 43.8943 41.2843H43.8863ZM28.1163 20.7752C29.8813 20.5042 31.4575 19.612 32.5029 18.2921C33.5483 16.9721 33.9785 15.331 33.7003 13.7248C33.5492 12.9352 33.2271 12.1806 32.7527 11.5048C32.2784 10.829 31.661 10.2454 30.9366 9.78785C30.2121 9.33029 29.3949 9.00785 28.5323 8.83919C27.6697 8.67053 26.7788 8.65902 25.9113 8.80531C24.1464 9.07673 22.5705 9.96929 21.5255 11.2894C20.4805 12.6094 20.0507 14.2506 20.3293 15.8566C20.4802 16.6462 20.8021 17.4006 21.2764 18.0764C21.7506 18.7521 22.3677 19.3356 23.092 19.7932C23.8162 20.2507 24.6332 20.5732 25.4957 20.7419C26.3581 20.9107 27.2488 20.9223 28.1163 20.7761V20.7752ZM25.7523 10.0043C28.0593 9.40572 30.5453 11.0543 31.3003 13.683C32.0553 16.3117 30.8003 18.9286 28.4883 19.5263C26.1763 20.124 23.6983 18.4754 22.9403 15.8457C22.1823 13.2161 23.4403 10.6011 25.7523 10.0034V10.0043ZM19.2063 26.3533C17.2843 26.4623 15.4133 27.2616 15.4133 27.5477C15.7676 28.0369 16.0443 28.5689 16.2353 29.1282C16.6811 32.2092 16.6878 35.3296 16.2553 38.4122C16.1836 38.9198 16.0232 39.4138 15.7803 39.8755C15.7673 39.9782 15.8433 40.0054 16.0583 40.0054C16.6093 40.0054 17.1323 39.9209 17.5443 39.9291C17.6593 39.9291 18.6093 40.0145 18.7963 40.0145C19.2043 40.0145 19.3643 40.0363 19.3343 39.7956C18.8738 39.3748 18.5565 38.8425 18.4203 38.2623C18.1875 35.1507 18.1477 32.0296 18.3013 28.9138C18.4013 27.6485 18.3613 27.4333 19.3493 27.4333C20.8293 27.4333 21.7493 28.7585 21.7493 30.1401C21.7493 32.6725 19.2273 32.1547 19.4163 32.7542C19.741 32.9031 20.1101 32.9525 20.4683 32.895C20.9518 32.8805 21.426 32.7709 21.8585 32.5739C22.2909 32.3768 22.6711 32.097 22.9731 31.7537C23.275 31.4104 23.4914 31.0117 23.6075 30.5851C23.7235 30.1585 23.7364 29.7142 23.6453 29.2826C23.2593 26.4777 21.0453 26.2488 19.2083 26.3524L19.2063 26.3533ZM35.0783 28.7767C33.1223 28.8448 33.7783 29.2236 33.8563 29.4652C34.0081 29.7089 34.103 29.9784 34.135 30.2569C34.167 30.5354 34.1354 30.8169 34.0423 31.0838C33.6748 32.2282 33.2066 33.3439 32.6423 34.4201C31.8943 35.9997 31.8323 36.0324 31.6843 36.0324C31.5363 36.0324 31.4033 35.9416 30.8053 34.8779C29.9149 33.4522 29.1801 31.9509 28.6113 30.3953C28.1203 28.7603 28.1163 29.2227 26.2793 29.2227C26.2793 29.2227 24.5493 28.942 24.6493 29.4652C24.7013 29.7377 25.7493 30.299 26.3883 31.1102C27.4565 32.539 28.4052 34.0386 29.2263 35.5964C31.2703 39.3478 31.3003 38.9708 31.4493 38.9708C32.0193 38.2468 32.5062 37.4715 32.9023 36.6573C33.4873 35.6354 35.4513 31.3581 36.4143 30.0856C37.3773 28.813 37.0363 28.7086 35.0813 28.7758" fill="#D0D0B5"/>
</svg>
