<svg width="80" height="30" viewBox="0 0 80 30" fill="none" xmlns="http://www.w3.org/2000/svg">
<path d="M70.4524 20.1869C58.3107 20.4575 46.9522 25.8698 34.8105 26.5463C31.2855 26.6816 27.7604 26.2757 25.0187 24.652C29.9799 23.7051 34.6799 21.9461 38.205 18.5632C41.9913 15.0454 42.3828 8.55065 40.0327 3.9502C37.8133 -0.379631 32.1994 -0.514937 28.2827 0.567521C19.0129 2.86753 12.7464 14.3686 17.9685 22.4869C12.224 22.8928 6.47951 22.4869 0.865581 22.7577C-0.309427 22.8928 -0.309427 24.6518 0.996138 24.6518C6.74062 25.0577 13.6601 25.5989 20.4491 25.193C20.8407 25.4638 21.2324 25.8698 21.6241 26.1402C35.4631 36.1529 55.6993 23.5693 70.5828 23.1634C72.28 23.0281 72.28 20.0516 70.4524 20.1869ZM19.1435 16.9393C17.7074 11.3919 22.4074 6.65613 26.7158 4.35568C31.0241 2.05546 37.1603 2.05546 38.5964 7.87368C40.2936 14.639 34.6797 18.698 29.3269 20.4573C26.8463 21.2691 24.4963 21.8103 22.0157 22.0809C20.5798 20.7279 19.6659 19.1042 19.1435 16.9393Z" fill="#ACACA0"/>
<path d="M79.3299 20.3219C77.5023 19.1041 75.8051 17.8864 74.1079 16.6688C72.6717 15.5863 71.2356 14.3686 69.5384 13.9627C68.2328 13.5567 66.9272 15.5863 68.1022 16.5333C69.5384 17.6157 71.105 18.5629 72.5414 19.5101C73.5858 20.1868 74.6303 20.9984 75.544 21.675C74.4995 22.2162 73.4551 22.6221 72.4106 23.1634C71.6273 23.5693 70.7134 23.9752 69.93 24.3811C69.6689 24.5164 69.4078 24.7871 69.277 25.0577C68.8854 25.5989 69.1467 25.3285 69.277 25.193C68.755 25.5989 68.755 26.952 69.6689 26.8167C69.93 26.952 70.1909 26.952 70.5826 26.952C71.4965 26.6814 72.5412 26.2754 73.4549 25.8695C75.4134 25.0575 77.3716 24.2456 79.1996 23.1634C80.2438 22.3517 80.2438 20.8631 79.3299 20.3219Z" fill="#ACACA0"/>
</svg>
